PathFileType	4	(X/Y/Z)	./resultDataOpenSim/trcMotMarkerGrf/sub06/qtm-02-07.trc
DataRate	CameraRate	NumFrames	NumMarkers	Units	OrigDataRate	OrigDataStartFrame	OrigNumFrames
250.000000	250.000000	10	24	m	250.000000	433	494
Frame#	Time	L.Toe.Tip			R.Toe.Tip			L.Ankle.Lat			R.Ankle.Lat			L.Ankle.Med			R.Ankle.Med			L.Heel			R.Heel			L.Knee.Lat			R.Knee.Lat			L.Knee.Med			R.Knee.Med			L.Thigh.Upper			R.Thigh.Upper			L.ASIS			R.ASIS			V.Sacral			L.Acromium			R.Acromium			C7			L.Elbow			R.Elbow			L.Wrist.Lat			R.Wrist.Lat
		X1	Y1	Z1	X2	Y2	Z2	X3	Y3	Z3	X4	Y4	Z4	X5	Y5	Z5	X6	Y6	Z6	X7	Y7	Z7	X8	Y8	Z8	X9	Y9	Z9	X10	Y10	Z10	X11	Y11	Z11	X12	Y12	Z12	X13	Y13	Z13	X14	Y14	Z14	X15	Y15	Z15	X16	Y16	Z16	X17	Y17	Z17	X18	Y18	Z18	X19	Y19	Z19	X20	Y20	Z20	X21	Y21	Z21	X22	Y22	Z22	X23	Y23	Z23	X24	Y24	Z24

433	1.728	1.6697545	0.033571673	-0.018320558	1.1676939	0.084607451	0.13090771	1.5467057	0.066978848	-0.053353818	1.1563949	0.22132753	0.1713818	1.5430817	0.081451929	0.033151291	1.1923716	0.21794848	0.090093246	1.4686633	0.039429207	-0.016587494	1.1251441	0.26725911	0.11114405	1.6071346	0.43756335	-0.064198392	1.4903931	0.40600454	0.20146647	1.5727404	0.43361899	0.051819153	1.4858781	0.38892765	0.066815209	1.4880794	0.81705552	-0.13735661	1.4257941	0.77064507	0.20113166	1.5479516	0.85455041	-0.081580567	1.5281173	0.83207249	0.16264976	1.3515357	0.91806949	0.037679746	1.4603158	1.3202188	-0.15246001	1.4678786	1.3224274	0.21161032	1.3848845	1.3596142	0.029367683	1.37907	1.012628	-0.19423424	1.4091643	1.0066564	0.27961729	1.4903404	0.79957581	-0.24145629	1.5861288	0.83632452	0.29288282
434	1.732	1.6697528	0.033563662	-0.018292632	1.1845887	0.085332604	0.13156131	1.5467375	0.066993676	-0.053412062	1.1707812	0.22145102	0.17136368	1.5431188	0.081468105	0.033133863	1.2060181	0.21889591	0.090037367	1.4686398	0.03953628	-0.016869198	1.1376123	0.26687069	0.11113649	1.6088092	0.4373615	-0.064037628	1.5020443	0.4088622	0.20207677	1.5741828	0.43380066	0.051932751	1.4983371	0.39137069	0.067256916	1.4932909	0.81787201	-0.13756845	1.4313298	0.7726644	0.20107444	1.5535149	0.85572465	-0.081770378	1.5336858	0.83403871	0.16280348	1.357666	0.91978767	0.037120321	1.4666843	1.3222019	-0.15238424	1.4731864	1.3242211	0.21172072	1.3907786	1.3612288	0.029280635	1.3871439	1.0138479	-0.19464696	1.4133768	1.008691	0.27898345	1.5013138	0.8019722	-0.24077287	1.5883242	0.83622668	0.29329099
435	1.736	1.6697439	0.033557208	-0.018257568	1.2015349	0.085882267	0.13229606	1.5467576	0.06701538	-0.053460996	1.1849923	0.22141341	0.17134018	1.5431184	0.081531355	0.033110623	1.2198586	0.21950696	0.090055515	1.4686154	0.039647653	-0.016977847	1.1502557	0.26623175	0.11129636	1.6104165	0.43718589	-0.063868775	1.5136105	0.41186104	0.20267024	1.5754768	0.43396115	0.052037774	1.5106451	0.39385891	0.067719867	1.4983863	0.81861823	-0.13774521	1.4370695	0.77470941	0.20110982	1.5590437	0.85690375	-0.081982192	1.5392609	0.83601474	0.16293092	1.3636979	0.92148586	0.036595	1.4730192	1.3241888	-0.152269	1.4784843	1.3260125	0.21184462	1.3966725	1.3628398	0.029228131	1.395218	1.0150943	-0.19503999	1.4176578	1.0107398	0.27841689	1.5123233	0.80443008	-0.24006898	1.5904641	0.83622103	0.29371133
436	1.74	1.6697302	0.033555037	-0.018214291	1.2185098	0.086250202	0.13312995	1.5467748	0.067059539	-0.053493244	1.1989978	0.22124835	0.17129558	1.543102	0.081654163	0.03308213	1.2339202	0.21980296	0.090224866	1.4685993	0.039778082	-0.016899261	1.1630355	0.26535094	0.11141244	1.6119588	0.43704047	-0.063697332	1.5251101	0.41498392	0.20324023	1.5765007	0.43407035	0.052103291	1.5227928	0.39638379	0.068163253	1.5033813	0.81931829	-0.13787523	1.4430436	0.77679051	0.20121096	1.5646147	0.85809918	-0.082239873	1.5448489	0.83799734	0.16302768	1.369602	0.92314217	0.036102476	1.4793132	1.3261617	-0.15211394	1.4837932	1.3278068	0.21198896	1.4025689	1.3644489	0.029198284	1.4033018	1.0163655	-0.19543245	1.4221809	1.0127873	0.27792238	1.5233538	0.80694749	-0.2393417	1.5925591	0.83629724	0.29414899
437	1.744	1.6697208	0.033556152	-0.018162856	1.235523	0.086438758	0.1340644	1.5468012	0.067132347	-0.053504224	1.212884	0.22093334	0.17122776	1.5431022	0.081824086	0.033056766	1.2481996	0.21980581	0.09057908	1.4685949	0.03993922	-0.016758908	1.1759558	0.26422415	0.11127161	1.613446	0.43693071	-0.063524049	1.536536	0.41819968	0.20377701	1.5772623	0.43412258	0.052130622	1.5349007	0.39894837	0.068574023	1.5083064	0.81998856	-0.13794186	1.4491925	0.77891151	0.20133209	1.5702667	0.85931985	-0.082551613	1.550459	0.83998516	0.16308757	1.3753865	0.92474787	0.035638634	1.485565	1.3281238	-0.15193071	1.489141	1.3296053	0.21215905	1.4084689	1.3660422	0.029181295	1.4114019	1.017654	-0.19584521	1.4268807	1.0148286	0.27748394	1.5343786	0.80952318	-0.2385829	1.5946247	0.8364446	0.29460559
438	1.748	1.6697253	0.033557682	-0.018104427	1.2525902	0.086460261	0.13508842	1.5468433	0.067229389	-0.053499094	1.2267408	0.22044739	0.1711427	1.5431491	0.082015875	0.033044536	1.262602	0.21954762	0.090983364	1.4686016	0.040132851	-0.016667072	1.1890225	0.26281679	0.11085025	1.6148788	0.43685534	-0.063350701	1.5478722	0.42147527	0.20427555	1.5780271	0.4341504	0.052169203	1.5470604	0.40157843	0.068974951	1.513203	0.82063526	-0.13793285	1.4554179	0.78106332	0.20144509	1.5759667	0.86056652	-0.082895564	1.5561058	0.8419795	0.16310545	1.3810738	0.9263064	0.035206978	1.4917832	1.3300836	-0.15173372	1.4945385	1.3313914	0.2123415	1.4143721	1.367607	0.029169622	1.4195146	1.018951	-0.19628066	1.4315507	1.0168597	0.27708286	1.5454021	0.81215167	-0.23778434	1.5966758	0.83665466	0.29508365
439	1.752	1.6697482	0.033557248	-0.018040415	1.269721	0.086333949	0.13618631	1.5469036	0.067342049	-0.05348402	1.2406286	0.21977221	0.17105212	1.5432203	0.082208491	0.033047885	1.2769672	0.21906964	0.091173656	1.4686176	0.040350767	-0.01663566	1.2022319	0.2610852	0.1102364	1.6162453	0.43680567	-0.063182478	1.5591081	0.42478681	0.20474084	1.5791253	0.43419021	0.052273573	1.5592305	0.40431222	0.069393097	1.5181179	0.82127639	-0.13787937	1.461718	0.78322484	0.2015646	1.5816476	0.86182701	-0.083239364	1.5618033	0.84398148	0.16307776	1.3866866	0.92781935	0.034818217	1.4979842	1.3320442	-0.15153349	1.499966	1.3331297	0.21250535	1.4202775	1.3691386	0.029160375	1.4276339	1.0202473	-0.19673355	1.4360223	1.0188727	0.27670339	1.5564883	0.81481867	-0.23693765	1.5987206	0.83692333	0.29559591
440	1.756	1.6697841	0.033553285	-0.017972792	1.2869431	0.086090793	0.13733371	1.5469799	0.067461911	-0.053460353	1.2545735	0.21888639	0.17096599	1.5432018	0.082402417	0.033055335	1.2912211	0.21839862	0.091025663	1.4686405	0.040579422	-0.016622864	1.2156207	0.25902302	0.10947539	1.617531	0.43677089	-0.06302894	1.5702487	0.42811849	0.20518808	1.5806199	0.43424104	0.052450607	1.5713597	0.40718586	0.069834069	1.5230464	0.82194886	-0.13785619	1.4681452	0.78537831	0.20172183	1.5872622	0.86308084	-0.083564449	1.5675529	0.84598916	0.16300317	1.3922561	0.92928371	0.03448433	1.5041839	1.3340026	-0.15133216	1.5053994	1.3347895	0.21262883	1.4261813	1.3706324	0.029157101	1.4357573	1.021534	-0.19719879	1.4402491	1.0208733	0.27632652	1.5677212	0.81750705	-0.23603277	1.6007599	0.83724839	0.29616216
441	1.76	1.6698224	0.033545211	-0.017904211	1.3043191	0.085773507	0.13849733	1.5470628	0.067582933	-0.053427762	1.2685885	0.2177741	0.17088772	1.5429474	0.082588918	0.03305402	1.3054521	0.21753404	0.09069303	1.4686679	0.040806685	-0.016594755	1.229246	0.25667482	0.10857994	1.6187319	0.43674141	-0.062901326	1.5813106	0.43145191	0.20563317	1.582258	0.43428027	0.052667515	1.5835625	0.41022537	0.070283212	1.5279309	0.82267535	-0.13790744	1.4746658	0.78751811	0.20193201	1.5928039	0.86431189	-0.083869591	1.5733413	0.84799801	0.16288398	1.397831	0.93070193	0.034212009	1.5103871	1.3359475	-0.15112302	1.5108342	1.3363657	0.21271509	1.4320766	1.3720821	0.0291671	1.4438817	1.0228029	-0.19766646	1.444255	1.0228781	0.27593319	1.5790983	0.82021125	-0.23507235	1.6027903	0.83762333	0.29678181
442	1.764	1.6698561	0.033534434	-0.017837329	1.3218972	0.085407831	0.13966031	1.5471406	0.067703637	-0.053387973	1.2827033	0.21643614	0.17081338	1.542445	0.082733892	0.03304768	1.319798	0.21646797	0.090420253	1.4686982	0.041030251	-0.01654368	1.2430595	0.25409474	0.1076484	1.6198633	0.43671069	-0.062804071	1.5923007	0.43476457	0.20607896	1.5836881	0.43431081	0.052902494	1.5960096	0.41345163	0.070718448	1.5327855	0.82343381	-0.13799355	1.4812575	0.78963655	0.20221461	1.5982992	0.86551487	-0.084159189	1.5791578	0.85000313	0.16272423	1.4034539	0.93208738	0.033999063	1.5165882	1.3378583	-0.15090159	1.51628	1.3378693	0.21277682	1.4379572	1.3734858	0.02919384	1.4520046	1.0240472	-0.19812301	1.4480496	1.024871	0.27551683	1.5904728	0.82294114	-0.2340839	1.6048058	0.83803482	0.29741355
